<?xml version="1.0" encoding="UTF-8" standalone="no"?>
<svg
   id="Layer_2"
   data-name="Layer 2"
   viewBox="0 0 681.86 200"
   version="1.1"
   sodipodi:docname="abd-name.svg"
   xml:space="preserve"
   inkscape:version="1.2.2 (b0a8486541, 2022-12-01)"
   xmlns:inkscape="http://www.inkscape.org/namespaces/inkscape"
   xmlns:sodipodi="http://sodipodi.sourceforge.net/DTD/sodipodi-0.dtd"
   xmlns="http://www.w3.org/2000/svg"
   xmlns:svg="http://www.w3.org/2000/svg"><sodipodi:namedview
     id="namedview21"
     pagecolor="#ffffff"
     bordercolor="#000000"
     borderopacity="0.25"
     inkscape:showpageshadow="2"
     inkscape:pageopacity="0.0"
     inkscape:pagecheckerboard="0"
     inkscape:deskcolor="#d1d1d1"
     showgrid="false"
     inkscape:zoom="1.9124707"
     inkscape:cx="254.64443"
     inkscape:cy="122.09338"
     inkscape:window-width="1868"
     inkscape:window-height="1056"
     inkscape:window-x="0"
     inkscape:window-y="0"
     inkscape:window-maximized="1"
     inkscape:current-layer="g464" /><defs
     id="defs4"><style
       id="style2">
      .ABDLogoText {
        fill: #000000;
      }
      .ABDLogoBlue {
        fill:#46c8f5;
      }
      .ABDLogoGreen {
        fill:#4cad67;
      }
    </style><style
       id="style2-6">.alb{fill:#0098FF}.alg{fill:#0065A9}</style></defs><g
     id="g464"
     inkscape:label="Name"><path
       id="rect362-6"
       style="fill:#4d4d4d;stroke-width:2.234"
       d="m 158.96942,0 h 481.85936 l -116.85,200 H 42.117864 Z"
       sodipodi:nodetypes="ccccc"
       inkscape:label="Name background outline" /><path
       id="rect362"
       style="fill:#1a1a1a;stroke-width:10.3358"
       d="m 153.9769,8.5450745 481.85942,0 L 528.97124,191.45493 H 47.110388 Z"
       sodipodi:nodetypes="ccccc"
       inkscape:label="Name background" /><path
       d="m 570.11333,52.864834 q -3.2239,0 -5.9401,-1.16771 -2.8685,-1.218481 -5.10238,-3.452362 -1.06617,-1.06617 -1.98003,-2.360806 -0.88848,-1.32002 -1.47234,-2.741581 -1.14232,-2.716195 -1.14232,-5.914707 0,-3.249281 1.16771,-5.990862 1.1931,-2.766966 3.45236,-5.102387 1.1931,-1.21848 2.46235,-2.056185 1.26925,-0.837706 2.58927,-1.370791 2.79235,-1.142325 5.96548,-1.142325 3.22389,0 5.99086,1.142325 1.44694,0.583855 2.71619,1.472331 1.26925,0.86309 2.33542,1.954645 1.24387,1.269251 2.08157,2.589271 0.8631,1.294636 1.3708,2.513116 1.16771,2.716196 1.16771,5.965477 0,3.223897 -1.14233,5.940092 -0.55847,1.320021 -1.44695,2.640041 -0.86309,1.320021 -2.00541,2.462346 -1.06617,1.066171 -2.36081,1.954646 -1.29463,0.888475 -2.74158,1.497716 -2.71619,1.16771 -5.96547,1.16771 z m 0,-3.325436 q 1.29463,0 2.41157,-0.20308 1.14233,-0.228465 2.31004,-0.736166 0.96463,-0.431545 1.98003,-1.091555 1.0154,-0.66001 1.98003,-1.624641 1.82772,-1.82772 2.74158,-4.010831 0.91386,-2.183111 0.91386,-4.696227 0,-1.37079 -0.25385,-2.487731 -0.22847,-1.11694 -0.66001,-2.18311 -0.93925,-2.259266 -2.7162,-4.061602 -1.77695,-1.802335 -3.98544,-2.690811 -1.21848,-0.5077 -2.36081,-0.71078 -1.11694,-0.20308 -2.28465,-0.20308 -1.42156,0 -2.58927,0.25385 -1.14233,0.228465 -2.18311,0.66001 -2.15773,0.939246 -3.98545,2.766966 -1.80233,1.802336 -2.71619,3.985447 -0.91386,2.13234 -0.91386,4.696226 0,2.487731 0.91386,4.670842 0.91386,2.183111 2.71619,3.985446 1.87849,1.878491 3.98545,2.741581 1.16771,0.507701 2.28465,0.736166 1.14232,0.20308 2.41158,0.20308 z m 0.53308,-3.630057 q -4.21391,0 -6.82857,-2.38619 -2.58927,-2.411576 -2.58927,-6.295483 0,-2.08157 0.6854,-3.680826 0.71078,-1.599256 1.87849,-2.665426 1.19309,-1.091555 2.91927,-1.700796 1.72618,-0.634625 3.9093,-0.634625 1.47233,0 2.76696,0.20308 0.58386,0.10154 1.29464,0.279235 0.73616,0.177695 1.32002,0.380776 v 4.264681 q -1.29464,-0.786935 -2.46235,-1.142325 -1.21848,-0.35539 -2.43696,-0.35539 -2.43696,0 -3.75698,1.32002 -1.37079,1.32002 -1.37079,3.731596 0,2.411576 1.3454,3.706212 1.32002,1.32002 3.85853,1.32002 1.42156,0 2.5385,-0.330005 1.11694,-0.35539 2.28465,-1.16771 v 4.264681 q -0.71078,0.20308 -1.39618,0.380775 -0.68539,0.15231 -1.3454,0.279235 -1.32002,0.228465 -2.61466,0.228465 z"
       style="font-weight:bold;font-size:51.9885px;font-family:Hack;-inkscape-font-specification:'Hack Bold';text-align:center;text-anchor:middle;fill:#ffffff;stroke-width:4.33238"
       id="path573"
       inkscape:label="Copyright" /><path
       class="ABDLogoText"
       d="m 554.47616,100.15502 c 0,14.60936 -3.33526,27.68732 -10.00577,39.24328 -6.67051,11.55595 -15.09791,20.42492 -25.28218,26.59749 -7.657,4.63178 -16.04681,7.86369 -25.17883,9.69573 -9.13203,1.82264 -19.94577,2.74336 -32.44124,2.74336 H 406.25927 V 21.565118 h 56.88725 c 12.77732,0 23.80715,1.07104 33.0801,3.213119 9.27295,2.14208 17.07087,5.176693 23.38437,9.113235 10.81374,6.604746 19.33509,15.501893 25.54524,26.700836 6.21015,11.198944 9.31993,24.389646 9.31993,39.553312 z m -41.81753,-0.319434 c 0,-10.3252 -1.87902,-19.156582 -5.63706,-26.494145 -3.75803,-7.337563 -9.71452,-13.077961 -17.86006,-17.221194 -4.14323,-2.038734 -8.37102,-3.419812 -12.69276,-4.162023 -4.32174,-0.742212 -10.83253,-1.108621 -19.54178,-1.108621 h -10.22185 v 98.178657 h 10.22185 c 9.62057,0 16.67628,-0.44157 21.17653,-1.31531 4.49085,-0.87374 8.88775,-2.4803 13.17191,-4.7915 7.37514,-4.20899 12.77732,-9.84605 16.22531,-16.91115 3.4386,-7.05571 5.15791,-15.78375 5.15791,-26.174714 z"
       id="path18"
       inkscape:label="D"
       style="fill:#ffffff;stroke-width:0.939509" /><path
       class="ABDLogoText"
       d="m 402.33212,130.38841 c 0,7.58183 -1.5314,14.36509 -4.5848,20.33097 -3.0534,5.96588 -7.25301,10.91709 -12.58942,14.85363 -6.18197,4.63178 -12.97461,7.93885 -20.38734,9.90242 -7.41272,1.96357 -16.79841,2.95006 -28.17586,2.95006 H 268.12331 V 21.565118 h 60.88955 c 12.63639,0 21.89056,0.422779 27.75309,1.268336 5.86253,0.845558 11.67809,2.705785 17.43728,5.580682 5.96588,3.015823 10.40976,7.0745 13.32223,12.166637 2.91248,5.092137 4.36872,10.907696 4.36872,17.437282 0,7.581835 -2.00115,14.271136 -6.00346,20.067905 -4.00231,5.796769 -9.65815,10.30641 -16.95813,13.53832 v 0.845558 c 10.25004,2.038734 18.38618,6.247733 24.38964,12.645782 6.00346,6.38866 9.00989,14.81606 9.00989,25.28218 z M 350.49943,65.919323 c 0,-2.593044 -0.64826,-5.195483 -1.94479,-7.797923 -1.29652,-2.593043 -3.59831,-4.528431 -6.89599,-5.796768 -2.95006,-1.127411 -6.62354,-1.738091 -11.01104,-1.841437 -4.38751,-0.103346 -10.55068,-0.159717 -18.48953,-0.159717 h -3.79562 v 33.183447 h 6.3229 c 6.38865,0 11.83781,-0.103346 16.32866,-0.319433 4.49085,-0.206692 8.04219,-0.911323 10.63523,-2.104499 3.65469,-1.615955 6.04105,-3.701665 7.15906,-6.266523 1.11802,-2.564859 1.68172,-5.533706 1.68172,-8.897147 z m 9.79907,63.839617 c 0,-4.98879 -0.96769,-8.83138 -2.89368,-11.53717 -1.926,-2.70578 -5.20488,-4.72573 -9.82727,-6.05983 -3.15674,-0.91132 -7.49727,-1.39987 -13.04038,-1.47503 -5.5337,-0.0658 -11.32108,-0.10334 -17.34333,-0.10334 h -8.83138 v 39.08356 h 2.94066 c 11.34927,0 19.48541,-0.0376 24.38965,-0.10335 4.90424,-0.0658 9.42327,-0.98648 13.56651,-2.74336 4.1996,-1.75689 7.09329,-4.08687 8.67166,-7.00874 1.57838,-2.91248 2.36756,-6.26652 2.36756,-10.06214 z"
       id="path16"
       inkscape:label="B"
       style="fill:#ffffff;stroke-width:0.939509" /><path
       class="ABDLogoText"
       d="M 264.20555,178.42549 H 222.4256 l -10.92648,-31.70842 h -58.04285 l -10.92649,31.70842 H 101.7645 L 159.704,21.565118 h 46.56205 z M 201.7846,117.95871 182.48709,61.766694 163.18958,117.95871 Z"
       id="path14"
       inkscape:label="A"
       style="fill:#ffffff;stroke-width:0.939509" /></g><g
     id="g263"
     transform="scale(2)"
     inkscape:label="Logo"><path
       id="path170-3"
       style="fill:#4cad67;fill-opacity:1;stroke-width:0.5"
       class="alg"
       inkscape:label="Greater than"
       d="m 313.11553,32.587891 -6.7539,11.558593 17.49805,5.878907 L 297.721,58.9375 286.80108,77.62793 340.92999,56.980469 V 43.014648 Z" /><path
       class="alb"
       d="m 273.72999,100 h -11.7406 l 58.425,-100 h 11.7406 z"
       id="path10-5"
       style="display:inline;fill:#46c8f5;fill-opacity:1;stroke-width:0.5"
       sodipodi:nodetypes="ccccc"
       inkscape:label="Right slash" /><path
       id="path12-7"
       style="display:inline;fill:#4cad67;fill-opacity:1;stroke-width:0.5"
       class="alg"
       d="M 67.195311,0 8.7695313,100 H 21.058932 L 79.484711,0 Z"
       inkscape:label="Left slash"
       sodipodi:nodetypes="ccccc" /><path
       id="path168-6"
       style="display:inline;fill:#46c8f5;fill-opacity:1;stroke-width:0.5"
       class="alb"
       d="M 54.124023,22.37207 0,43.019531 V 56.985352 L 27.630858,67.717773 34.560547,55.857422 17.065429,49.980469 43.204101,41.063477 Z"
       inkscape:label="Less than" /></g></svg>
