<?xml version="1.0" encoding="UTF-8" standalone="no"?>
<svg
   width="389.51297"
   zoomAndPan="magnify"
   viewBox="0 0 292.13475 247.54852"
   height="330.06473"
   preserveAspectRatio="xMidYMid"
   version="1.0"
   id="svg486"
   sodipodi:docname="logo-small-no-text.svg"
   xmlns:inkscape="http://www.inkscape.org/namespaces/inkscape"
   xmlns:sodipodi="http://sodipodi.sourceforge.net/DTD/sodipodi-0.dtd"
   xmlns="http://www.w3.org/2000/svg"
   xmlns:svg="http://www.w3.org/2000/svg">
  <sodipodi:namedview
     id="namedview6"
     pagecolor="#505050"
     bordercolor="#eeeeee"
     borderopacity="1"
     inkscape:showpageshadow="0"
     inkscape:pageopacity="0"
     inkscape:pagecheckerboard="0"
     inkscape:deskcolor="#505050"
     showgrid="false" />
  <defs
     id="defs4" />
  <path
     fill="#ebebeb"
     d="m 251.4941,116.33565 c 0,-0.65625 0.6562,-1.30859 0.6562,-1.96484 l 9.1758,-41.296876 c 2.625,-11.14453 -0.6523,-11.80078 -10.4883,-20.32422 C 206.9199,16.698934 178.0761,-4.9338857 125.6347,0.96455425 81.060506,6.2106543 44.353406,37.019244 16.822206,81.593464 c -5.2461,7.86719 -7.8672005,6.55469 -3.9336,14.42188 l 17.6992,32.121086 c -13.7656,-2.62109 -26.2226005,4.58594 -30.15620046,26.21875 -4.58600004,26.22266 28.18750046,96.36328 59.65230046,93.08203 11.1445,-1.30859 20.3203,-7.20703 20.9766,-19.66406 0.6562,-7.21094 -5.8985,-6.55469 -5.8985,0.65625 0,2.62109 -0.6562,4.58984 -1.3125,6.55469 -0.6562,-1.3125 -1.3086,-3.27735 -2.6211,-4.58985 -24.2539,-26.875 -36.0546,-53.75 -34.0859,-89.14843 0,-0.65625 0,-1.3125 0,-1.96485 3.2774,1.3086 6.5547,3.27735 10.4883,5.89844 9.832,5.89844 13.7656,1.30859 3.9336,-5.89844 -4.5899,-3.27734 -9.1797,-6.55859 -13.7656,-7.86719 0,-0.65625 -0.6563,-1.3125 -0.6563,-1.96875 l -13.1094,-36.050776 c -1.9687,-5.90234 -1.3125,-4.58984 2.6211,-9.83203 32.1211,-44.57813 62.9297,-52.44141 100.292994,-55.71875 37.3633,-3.27735 74.0742,1.30859 117.9922,33.42969 5.8984,4.58984 5.2461,1.96484 4.5898,9.17578 l -2.6211,43.921876 c 0,0.65625 0,0.65625 0,1.30859 -6.5586,-1.96484 -13.1132,-1.96484 -18.3554,0 -17.043,5.90234 -5.2461,39.98828 -3.2774,55.71875 1.9649,13.76562 -2.625,33.43359 -7.2109,46.54297 -1.9688,5.24219 -3.2774,9.17578 4.5859,12.45312 38.6758,17.04297 68.8321,-17.04297 69.4844,-57.68359 -0.6523,-22.94141 -20.3203,-47.85156 -40.6406,-56.375 z M 65.330006,236.94893 c 1.9649,1.3125 3.2774,2.625 4.5859,2.625 -2.621,1.96484 -5.8984,2.62109 -9.832,1.96484 -28.1875,-5.24218 -47.8515,-60.30468 -43.918,-82.59375 1.9649,-12.45703 5.2422,-19.01171 9.8321,-20.32031 -4.5899,36.70703 9.832,74.07031 39.332,98.32422 z M 225.2753,214.66377 c 4.586,-13.76562 11.1446,-35.39843 11.1446,-49.82031 0,-11.14453 -10.4883,-32.77344 -1.9688,-36.05078 2.6211,-0.65625 4.5898,-1.3125 6.5547,-1.3125 0,0.65625 0,1.96484 0.6562,2.62109 8.5235,30.15625 1.3125,65.55079 -9.832,94.39454 0,0.65625 0,0.65625 -0.6562,1.3125 -1.9649,-0.65625 -4.5899,-1.96875 -7.211,-3.27735 -1.9648,-1.3125 0.6563,-5.90234 1.3125,-7.86719 z m 11.1446,12.45313 c 0.6523,-1.30859 1.9648,-2.62109 2.621,-4.58594 16.3868,-28.1875 26.2188,-62.27344 10.4883,-94.39453 14.4219,4.58594 22.2852,23.59766 22.2852,43.26172 0,28.84375 -9.1758,60.30859 -35.3945,55.71875 z m 0,0"
     fill-opacity="1"
     fill-rule="nonzero"
     id="path26" />
</svg>
