<?xml version="1.0" encoding="UTF-8" standalone="no"?>
<svg
   width="2384.6594"
   zoomAndPan="magnify"
   viewBox="0 0 1788.4946 225.17109"
   height="300.22815"
   preserveAspectRatio="xMidYMid"
   version="1.0"
   id="svg486"
   sodipodi:docname="logo-text-only.svg"
   inkscape:version="1.2.2 (b0a8486541, 2022-12-01)"
   xmlns:inkscape="http://www.inkscape.org/namespaces/inkscape"
   xmlns:sodipodi="http://sodipodi.sourceforge.net/DTD/sodipodi-0.dtd"
   xmlns="http://www.w3.org/2000/svg"
   xmlns:svg="http://www.w3.org/2000/svg">
  <sodipodi:namedview
     id="namedview488"
     pagecolor="#505050"
     bordercolor="#eeeeee"
     borderopacity="1"
     inkscape:showpageshadow="0"
     inkscape:pageopacity="0"
     inkscape:pagecheckerboard="0"
     inkscape:deskcolor="#505050"
     showgrid="false"
     inkscape:zoom="0.11097712"
     inkscape:cx="1040.7551"
     inkscape:cy="58.570631"
     inkscape:window-width="1860"
     inkscape:window-height="1056"
     inkscape:window-x="60"
     inkscape:window-y="0"
     inkscape:window-maximized="1"
     inkscape:current-layer="svg486" />
  <defs
     id="defs4" />
  <g
     fill="#000000"
     fill-opacity="0.702"
     id="g36"
     transform="translate(-432.54403,-883.49064)">
    <g
       transform="translate(419.71576,1022.8173)"
       id="g34">
      <g
         id="g32">
        <path
           d="m 91.28125,-110.45313 -27.484375,75.500005 c -0.792969,2.261719 -0.625,4.214844 0.5,5.859375 1.132813,1.636719 2.890625,2.453125 5.265625,2.453125 h 59.375 L 119.26563,0 H 45.8125 c -1.585938,0 -3.027344,-0.195312 -4.328125,-0.59375 -1.304687,-0.394531 -2.40625,-1.046875 -3.3125,-1.953125 l -15.09375,-12.21875 c -1.46875,-1.46875 -2.351563,-3.300781 -2.640625,-5.5 -0.28125,-2.207031 -0.02734,-4.5 0.765625,-6.875 L 51.40625,-110.45313 Z m 0,0"
           id="path30" />
      </g>
    </g>
  </g>
  <g
     fill="#000000"
     fill-opacity="0.702"
     id="g44"
     transform="translate(-432.54403,-883.49064)">
    <g
       transform="translate(546.0898,1022.8173)"
       id="g42">
      <g
         id="g40">
        <path
           d="M 47.671875,-95.515625 H 83.8125 L 49.203125,0 H 13.0625 Z M 60.90625,-131.82812 H 97.046875 L 87.375,-105.01563 H 51.234375 Z m 0,0"
           id="path38" />
      </g>
    </g>
  </g>
  <g
     fill="#000000"
     fill-opacity="0.702"
     id="g52"
     transform="translate(-432.54403,-883.49064)">
    <g
       transform="translate(608.34384,1022.8173)"
       id="g50">
      <g
         id="g48">
        <path
           d="m 69.046875,-30.203125 c -0.679687,2.042969 -0.539063,3.742187 0.421875,5.09375 0.96875,1.355469 2.351562,2.03125 4.15625,2.03125 h 26.8125 L 92.125,0 H 56.5 C 55.25,0 54.03125,-0.164062 52.84375,-0.5 51.65625,-0.84375 50.664062,-1.410156 49.875,-2.203125 L 34.09375,-17.3125 C 31.269531,-20.132812 30.648438,-23.695312 32.234375,-28 l 16.125,-44.4375 -10.703125,-8.484375 5.265625,-14.59375 h 13.75 l 7.28125,-19.687505 h 36.140625 l -7.296875,19.687505 h 33.937505 l -8.3125,23.078125 H 84.484375 Z m 0,0"
           id="path46" />
      </g>
    </g>
  </g>
  <g
     fill="#000000"
     fill-opacity="0.702"
     id="g60"
     transform="translate(-432.54403,-883.49064)">
    <g
       transform="translate(708.76454,1022.8173)"
       id="g58">
      <g
         id="g56">
        <path
           d="m 69.046875,-30.203125 c -0.679687,2.042969 -0.539063,3.742187 0.421875,5.09375 0.96875,1.355469 2.351562,2.03125 4.15625,2.03125 h 26.8125 L 92.125,0 H 56.5 C 55.25,0 54.03125,-0.164062 52.84375,-0.5 51.65625,-0.84375 50.664062,-1.410156 49.875,-2.203125 L 34.09375,-17.3125 C 31.269531,-20.132812 30.648438,-23.695312 32.234375,-28 l 16.125,-44.4375 -10.703125,-8.484375 5.265625,-14.59375 h 13.75 l 7.28125,-19.687505 h 36.140625 l -7.296875,19.687505 h 33.937505 l -8.3125,23.078125 H 84.484375 Z m 0,0"
           id="path54" />
      </g>
    </g>
  </g>
  <g
     fill="#000000"
     fill-opacity="0.702"
     id="g68"
     transform="translate(-432.54403,-883.49064)">
    <g
       transform="translate(809.18525,1022.8173)"
       id="g66">
      <g
         id="g64">
        <path
           d="m 54.296875,-14.078125 c -1.136719,2.9375 -3.0625,5.085937 -5.78125,6.4375 l -12.375,6.28125 C 34.671875,-0.453125 33.085938,0 31.390625,0 H 13.0625 l 39.359375,-108.23438 c 1.132813,-2.94531 3.054687,-5.09765 5.765625,-6.45312 l 12.046875,-6.28125 c 1.582031,-0.90625 3.28125,-1.35938 5.09375,-1.35938 H 93.65625 Z m 0,0"
           id="path62" />
      </g>
    </g>
  </g>
  <g
     fill="#000000"
     fill-opacity="0.702"
     id="g76"
     transform="translate(-432.54403,-883.49064)">
    <g
       transform="translate(871.43929,1022.8173)"
       id="g74">
      <g
         id="g72">
        <path
           d="M 22.734375,-17.3125 C 19.910156,-20.132812 19.289062,-23.695312 20.875,-28 l 14.40625,-39.6875 c 3.394531,-9.5 9.132812,-16.507812 17.21875,-21.03125 8.09375,-4.53125 17.625,-6.796875 28.59375,-6.796875 h 40.375 c 11.08203,0 19.02344,2.265625 23.82812,6.796875 4.8125,4.523438 5.52344,11.53125 2.14063,21.03125 L 143.35937,-56.5 c -1.58593,4.53125 -4.80859,8.09375 -9.67187,10.6875 l -20.53125,10.359375 c -1.24219,0.792969 -2.59375,1.386719 -4.0625,1.78125 -1.46875,0.398437 -2.82812,0.59375 -4.07812,0.59375 H 71.09375 L 63.625,-46.3125 57.6875,-30.203125 c -0.679688,2.042969 -0.570312,3.742187 0.328125,5.09375 0.90625,1.355469 2.320313,2.03125 4.25,2.03125 H 126.90625 L 118.59375,0 H 45.125 c -1.242188,0 -2.453125,-0.164062 -3.640625,-0.5 -1.1875,-0.34375 -2.179687,-0.910156 -2.96875,-1.703125 z m 47.84375,-48 -3.390625,9.328125 h 35.10938 c 2.03906,0 4.01953,-0.734375 5.9375,-2.203125 1.92578,-1.46875 3.28515,-3.222656 4.07812,-5.265625 l 0.67188,-1.859375 c 0.6875,-2.039062 0.57812,-3.738281 -0.32813,-5.09375 -0.90625,-1.351562 -2.38281,-2.03125 -4.42187,-2.03125 H 80.421875 c -2.042969,0 -4.027344,0.679688 -5.953125,2.03125 -1.917969,1.355469 -3.214844,3.054688 -3.890625,5.09375 z m 0,0"
           id="path70" />
      </g>
    </g>
  </g>
  <g
     fill="#000000"
     fill-opacity="0.702"
     id="g90"
     transform="translate(-432.54403,-883.49064)">
    <g
       transform="translate(1073.8073,1022.8173)"
       id="g88">
      <g
         id="g86">
        <path
           d="M 148.28125,-63.625 141.5,-60.0625 c 5.53906,1.25 9.30078,3.742188 11.28125,7.46875 1.97656,3.730469 1.94531,8.421875 -0.0937,14.078125 l -4.0625,11.375 c -0.79297,2.375 -2.17969,4.667969 -4.15625,6.875 -1.98047,2.199219 -4.27344,4.03125 -6.875,5.5 l -23.92187,12.21875 c -1.46875,0.90625 -2.9961,1.558594 -4.57813,1.953125 C 107.50781,-0.195312 105.92578,0 104.34375,0 H 10.6875 l 40.046875,-110.45313 h 79.562495 c 12.78125,0 21.94141,2.60547 27.48438,7.8125 5.53906,5.199224 6.33203,13.289068 2.375,24.26563 L 159.3125,-76 c -0.90625,2.375 -2.32422,4.667969 -4.25,6.875 -1.91797,2.199219 -4.17969,4.03125 -6.78125,5.5 z m -88.046875,36.984375 h 38.5 c 2.269535,0 4.476565,-0.617187 6.625005,-1.859375 2.14453,-1.25 3.84375,-3.566406 5.09375,-6.953125 1.23828,-3.394531 1.23437,-5.6875 -0.0156,-6.875 -1.24219,-1.1875 -2.99219,-1.78125 -5.25,-1.78125 H 66.5 Z M 107.21875,-66 c 2.25781,0 4.51953,-0.644531 6.78125,-1.9375 2.26953,-1.300781 3.96875,-3.648438 5.09375,-7.046875 1.25,-3.394531 1.25,-5.710937 0,-6.953125 -1.24219,-1.25 -2.93359,-1.875 -5.07812,-1.875 H 80.921875 L 74.484375,-66 Z m 0,0"
           id="path84" />
      </g>
    </g>
  </g>
  <g
     fill="#000000"
     fill-opacity="0.702"
     id="g98"
     transform="translate(-432.54403,-883.49064)">
    <g
       transform="translate(1221.5546,1022.8173)"
       id="g96">
      <g
         id="g94">
        <path
           d="M 47.671875,-95.515625 H 83.8125 L 49.203125,0 H 13.0625 Z M 60.90625,-131.82812 H 97.046875 L 87.375,-105.01563 H 51.234375 Z m 0,0"
           id="path92" />
      </g>
    </g>
  </g>
  <g
     fill="#000000"
     fill-opacity="0.702"
     id="g106"
     transform="translate(-432.54403,-883.49064)">
    <g
       transform="translate(1283.8086,1022.8173)"
       id="g104">
      <g
         id="g102">
        <path
           d="m 161,-95.515625 -33.92187,93.65625 c -0.79297,2.144531 -2.03907,4.117187 -3.73438,5.921875 -1.69922,1.8125 -3.67969,3.398438 -5.9375,4.765625 l -26.984375,15.09375 c -1.242187,0.789063 -2.59375,1.351563 -4.0625,1.6875 C 84.890625,25.953125 83.53125,26.125 82.28125,26.125 H 8.828125 L 17.3125,3.046875 h 64.796875 c 1.925781,0 3.847656,-0.679687 5.765625,-2.03125 1.925781,-1.351563 3.226562,-3.050781 3.90625,-5.09375 L 97.546875,-19.6875 76.859375,-7.640625 H 38.34375 c -7.46875,0 -12.730469,-2.34375 -15.78125,-7.03125 -3.054688,-4.695313 -3.21875,-10.832031 -0.5,-18.40625 L 36.46875,-72.4375 c 2.71875,-7.46875 6.765625,-13.179688 12.140625,-17.140625 5.375,-3.957031 11.789063,-5.9375 19.25,-5.9375 H 115.875 l 6.60938,6.953125 2.54687,-6.953125 z m -100.9375,57.6875 c -0.792969,2.03125 -0.765625,3.730469 0.07813,5.09375 0.851563,1.355469 2.296875,2.03125 4.328125,2.03125 H 101.45314 L 116.71875,-72.4375 H 79.734375 c -2.03125,0 -3.980469,0.679688 -5.84375,2.03125 -1.867187,1.355469 -3.140625,3.054688 -3.828125,5.09375 z m 0,0"
           id="path100" />
      </g>
    </g>
  </g>
  <g
     fill="#000000"
     fill-opacity="0.702"
     id="g120"
     transform="translate(-432.54403,-883.49064)">
    <g
       transform="translate(1492.1137,1022.8173)"
       id="g118">
      <g
         id="g116">
        <path
           d="m 158.125,-68.703125 -13.23438,36.46875 c -0.90625,2.492187 -2.29296,4.757813 -4.15625,6.796875 -1.86718,2.03125 -4.04296,3.78125 -6.53125,5.25 L 102.8125,-2.546875 c -1.46875,0.90625 -2.96875,1.558594 -4.5,1.953125 C 96.789062,-0.195312 95.238281,0 93.65625,0 H 10.015625 L 19.6875,-26.640625 h 74.984375 c 2.375,0 4.632813,-0.816406 6.781255,-2.453125 2.14453,-1.644531 3.61328,-3.597656 4.40625,-5.859375 l 2.71875,-7.125 H 25.28125 l 13.0625,-36.140625 c 2.03125,-5.3125 5.765625,-9.492188 11.203125,-12.546875 L 80.59375,-107.90625 c 1.582031,-0.90625 3.132812,-1.55469 4.65625,-1.95313 1.53125,-0.39453 3.03125,-0.59375 4.5,-0.59375 h 83.46875 l -9.67188,26.64063 H 88.734375 c -2.375,0 -4.667969,0.792969 -6.875,2.375 -2.210937,1.585938 -3.765625,3.5625 -4.671875,5.9375 l -2.375,6.796875 z m 0,0"
           id="path114" />
      </g>
    </g>
  </g>
  <g
     fill="#000000"
     fill-opacity="0.702"
     id="g128"
     transform="translate(-432.54403,-883.49064)">
    <g
       transform="translate(1635.2811,1022.8173)"
       id="g126">
      <g
         id="g124">
        <path
           d="M 39.703125,0 C 36.753906,0 34.601562,-0.734375 33.25,-2.203125 L 19.84375,-12.546875 C 17.363281,-15.378906 16.914062,-19.054688 18.5,-23.578125 L 34.609375,-67.6875 c 3.394531,-9.5 9.132813,-16.507812 17.21875,-21.03125 8.082031,-4.53125 17.613281,-6.796875 28.59375,-6.796875 h 51.062495 c 2.9375,0 5.14063,0.792969 6.60938,2.375 l 13.0625,10.171875 c 2.83203,3.0625 3.45703,6.742188 1.875,11.03125 l -16.125,44.109375 c -3.5,9.5 -9.26562,16.515625 -17.29687,21.046875 C 111.57813,-2.257812 102.01953,0 90.9375,0 Z M 57,-30.203125 c -0.679688,2.042969 -0.5625,3.742187 0.34375,5.09375 0.90625,1.355469 2.375,2.03125 4.40625,2.03125 h 30.375 c 1.914062,0 3.835938,-0.675781 5.765625,-2.03125 1.925781,-1.351563 3.226565,-3.050781 3.906255,-5.09375 L 114.6875,-65.3125 c 0.67578,-2.039062 0.5625,-3.738281 -0.34375,-5.09375 -0.90625,-1.351562 -2.375,-2.03125 -4.40625,-2.03125 h -30.375 c -1.917969,0 -3.839844,0.679688 -5.765625,2.03125 -1.917969,1.355469 -3.21875,3.054688 -3.90625,5.09375 z m 0,0"
           id="path122" />
      </g>
    </g>
  </g>
  <g
     fill="#000000"
     fill-opacity="0.702"
     id="g136"
     transform="translate(-432.54403,-883.49064)">
    <g
       transform="translate(1772.0024,1022.8173)"
       id="g134">
      <g
         id="g132">
        <path
           d="m 125.89063,-95.515625 h 35.96874 L 127.25,0 H 95.171875 L 95.6875,-12.046875 75.328125,0 h -46.3125 C 23.921875,0 20.242188,-1.78125 17.984375,-5.34375 15.722656,-8.90625 15.5,-13.234375 17.3125,-18.328125 l 27.984375,-77.1875 H 81.4375 l -23.75,65.3125 c -0.679688,2.042969 -0.59375,3.742187 0.25,5.09375 0.84375,1.355469 2.285156,2.03125 4.328125,2.03125 H 99.59375 Z m 0,0"
           id="path130" />
      </g>
    </g>
  </g>
  <g
     fill="#000000"
     fill-opacity="0.702"
     id="g144"
     transform="translate(-432.54403,-883.49064)">
    <g
       transform="translate(1909.9112,1022.8173)"
       id="g142">
      <g
         id="g140">
        <path
           d="m 146.07812,-95.515625 c 5.08204,0 8.75391,1.78125 11.01563,5.34375 2.26953,3.5625 2.44141,7.890625 0.51562,12.984375 L 129.625,0 H 93.8125 l 23.76563,-65.3125 c 0.67578,-2.039062 0.53125,-3.738281 -0.4375,-5.09375 -0.96094,-1.351562 -2.39844,-2.03125 -4.3125,-2.03125 H 73.125 L 46.828125,0 H 10.6875 L 45.296875,-95.515625 H 81.4375 l -4.75,13.0625 21.875,-13.0625 z m 0,0"
           id="path138" />
      </g>
    </g>
  </g>
  <g
     fill="#000000"
     fill-opacity="0.702"
     id="g152"
     transform="translate(-432.54403,-883.49064)">
    <g
       transform="translate(2050.1948,1022.8173)"
       id="g150">
      <g
         id="g148">
        <path
           d="m 122.48438,-88.5625 12.39062,-33.76563 h 35.96875 L 126.39063,0 H 93.984375 l 0.6875,-12.046875 L 74.140625,0 H 35.625 c -7.460938,0 -12.71875,-2.375 -15.78125,-7.125 -3.054688,-4.75 -3.21875,-10.859375 -0.5,-18.328125 l 17.125,-46.984375 c 2.71875,-7.46875 6.765625,-13.179688 12.140625,-17.140625 5.375,-3.957031 11.789063,-5.9375 19.25,-5.9375 H 115.875 Z m -65.312505,58.359375 c -0.679687,2.042969 -0.59375,3.742187 0.25,5.09375 0.851563,1.355469 2.296875,2.03125 4.328125,2.03125 H 98.734375 L 116.71875,-72.4375 H 79.734375 c -2.03125,0 -3.980469,0.679688 -5.84375,2.03125 -1.867187,1.355469 -3.140625,3.054688 -3.828125,5.09375 z m 0,0"
           id="path146" />
      </g>
    </g>
  </g>
  <g
     fill="#ebebeb"
     fill-opacity="1"
     id="g160"
     transform="translate(-432.54403,-883.49064)">
    <g
       transform="translate(412.21732,1015.3188)"
       id="g158">
      <g
         id="g156">
        <path
           d="m 91.28125,-110.45313 -27.484375,75.500005 c -0.792969,2.261719 -0.625,4.214844 0.5,5.859375 1.132813,1.636719 2.890625,2.453125 5.265625,2.453125 h 59.375 L 119.26563,0 H 45.8125 c -1.585938,0 -3.027344,-0.195312 -4.328125,-0.59375 -1.304687,-0.394531 -2.40625,-1.046875 -3.3125,-1.953125 l -15.09375,-12.21875 c -1.46875,-1.46875 -2.351563,-3.300781 -2.640625,-5.5 -0.28125,-2.207031 -0.02734,-4.5 0.765625,-6.875 L 51.40625,-110.45313 Z m 0,0"
           id="path154" />
      </g>
    </g>
  </g>
  <g
     fill="#ebebeb"
     fill-opacity="1"
     id="g168"
     transform="translate(-432.54403,-883.49064)">
    <g
       transform="translate(538.59135,1015.3188)"
       id="g166">
      <g
         id="g164">
        <path
           d="M 47.671875,-95.515625 H 83.8125 L 49.203125,0 H 13.0625 Z M 60.90625,-131.82812 H 97.046875 L 87.375,-105.01563 H 51.234375 Z m 0,0"
           id="path162" />
      </g>
    </g>
  </g>
  <g
     fill="#ebebeb"
     fill-opacity="1"
     id="g176"
     transform="translate(-432.54403,-883.49064)">
    <g
       transform="translate(600.84539,1015.3188)"
       id="g174">
      <g
         id="g172">
        <path
           d="m 69.046875,-30.203125 c -0.679687,2.042969 -0.539063,3.742187 0.421875,5.09375 0.96875,1.355469 2.351562,2.03125 4.15625,2.03125 h 26.8125 L 92.125,0 H 56.5 C 55.25,0 54.03125,-0.164062 52.84375,-0.5 51.65625,-0.84375 50.664062,-1.410156 49.875,-2.203125 L 34.09375,-17.3125 C 31.269531,-20.132812 30.648438,-23.695312 32.234375,-28 l 16.125,-44.4375 -10.703125,-8.484375 5.265625,-14.59375 h 13.75 l 7.28125,-19.687505 h 36.140625 l -7.296875,19.687505 h 33.937505 l -8.3125,23.078125 H 84.484375 Z m 0,0"
           id="path170" />
      </g>
    </g>
  </g>
  <g
     fill="#ebebeb"
     fill-opacity="1"
     id="g184"
     transform="translate(-432.54403,-883.49064)">
    <g
       transform="translate(701.26609,1015.3188)"
       id="g182">
      <g
         id="g180">
        <path
           d="m 69.046875,-30.203125 c -0.679687,2.042969 -0.539063,3.742187 0.421875,5.09375 0.96875,1.355469 2.351562,2.03125 4.15625,2.03125 h 26.8125 L 92.125,0 H 56.5 C 55.25,0 54.03125,-0.164062 52.84375,-0.5 51.65625,-0.84375 50.664062,-1.410156 49.875,-2.203125 L 34.09375,-17.3125 C 31.269531,-20.132812 30.648438,-23.695312 32.234375,-28 l 16.125,-44.4375 -10.703125,-8.484375 5.265625,-14.59375 h 13.75 l 7.28125,-19.687505 h 36.140625 l -7.296875,19.687505 h 33.937505 l -8.3125,23.078125 H 84.484375 Z m 0,0"
           id="path178" />
      </g>
    </g>
  </g>
  <g
     fill="#ebebeb"
     fill-opacity="1"
     id="g192"
     transform="translate(-432.54403,-883.49064)">
    <g
       transform="translate(801.6868,1015.3188)"
       id="g190">
      <g
         id="g188">
        <path
           d="m 54.296875,-14.078125 c -1.136719,2.9375 -3.0625,5.085937 -5.78125,6.4375 l -12.375,6.28125 C 34.671875,-0.453125 33.085938,0 31.390625,0 H 13.0625 l 39.359375,-108.23438 c 1.132813,-2.94531 3.054687,-5.09765 5.765625,-6.45312 l 12.046875,-6.28125 c 1.582031,-0.90625 3.28125,-1.35938 5.09375,-1.35938 H 93.65625 Z m 0,0"
           id="path186" />
      </g>
    </g>
  </g>
  <g
     fill="#ebebeb"
     fill-opacity="1"
     id="g200"
     transform="translate(-432.54403,-883.49064)">
    <g
       transform="translate(863.94084,1015.3188)"
       id="g198">
      <g
         id="g196">
        <path
           d="M 22.734375,-17.3125 C 19.910156,-20.132812 19.289062,-23.695312 20.875,-28 l 14.40625,-39.6875 c 3.394531,-9.5 9.132812,-16.507812 17.21875,-21.03125 8.09375,-4.53125 17.625,-6.796875 28.59375,-6.796875 h 40.375 c 11.08203,0 19.02344,2.265625 23.82812,6.796875 4.8125,4.523438 5.52344,11.53125 2.14063,21.03125 L 143.35937,-56.5 c -1.58593,4.53125 -4.80859,8.09375 -9.67187,10.6875 l -20.53125,10.359375 c -1.24219,0.792969 -2.59375,1.386719 -4.0625,1.78125 -1.46875,0.398437 -2.82812,0.59375 -4.07812,0.59375 H 71.09375 L 63.625,-46.3125 57.6875,-30.203125 c -0.679688,2.042969 -0.570312,3.742187 0.328125,5.09375 0.90625,1.355469 2.320313,2.03125 4.25,2.03125 H 126.90625 L 118.59375,0 H 45.125 c -1.242188,0 -2.453125,-0.164062 -3.640625,-0.5 -1.1875,-0.34375 -2.179687,-0.910156 -2.96875,-1.703125 z m 47.84375,-48 -3.390625,9.328125 h 35.10938 c 2.03906,0 4.01953,-0.734375 5.9375,-2.203125 1.92578,-1.46875 3.28515,-3.222656 4.07812,-5.265625 l 0.67188,-1.859375 c 0.6875,-2.039062 0.57812,-3.738281 -0.32813,-5.09375 -0.90625,-1.351562 -2.38281,-2.03125 -4.42187,-2.03125 H 80.421875 c -2.042969,0 -4.027344,0.679688 -5.953125,2.03125 -1.917969,1.355469 -3.214844,3.054688 -3.890625,5.09375 z m 0,0"
           id="path194" />
      </g>
    </g>
  </g>
  <g
     fill="#ebebeb"
     fill-opacity="1"
     id="g214"
     transform="translate(-432.54403,-883.49064)">
    <g
       transform="translate(1066.3088,1015.3188)"
       id="g212">
      <g
         id="g210">
        <path
           d="M 148.28125,-63.625 141.5,-60.0625 c 5.53906,1.25 9.30078,3.742188 11.28125,7.46875 1.97656,3.730469 1.94531,8.421875 -0.0937,14.078125 l -4.0625,11.375 c -0.79297,2.375 -2.17969,4.667969 -4.15625,6.875 -1.98047,2.199219 -4.27344,4.03125 -6.875,5.5 l -23.92187,12.21875 c -1.46875,0.90625 -2.9961,1.558594 -4.57813,1.953125 C 107.50781,-0.195312 105.92578,0 104.34375,0 H 10.6875 l 40.046875,-110.45313 h 79.562495 c 12.78125,0 21.94141,2.60547 27.48438,7.8125 5.53906,5.199224 6.33203,13.289068 2.375,24.26563 L 159.3125,-76 c -0.90625,2.375 -2.32422,4.667969 -4.25,6.875 -1.91797,2.199219 -4.17969,4.03125 -6.78125,5.5 z m -88.046875,36.984375 h 38.5 c 2.269535,0 4.476565,-0.617187 6.625005,-1.859375 2.14453,-1.25 3.84375,-3.566406 5.09375,-6.953125 1.23828,-3.394531 1.23437,-5.6875 -0.0156,-6.875 -1.24219,-1.1875 -2.99219,-1.78125 -5.25,-1.78125 H 66.5 Z M 107.21875,-66 c 2.25781,0 4.51953,-0.644531 6.78125,-1.9375 2.26953,-1.300781 3.96875,-3.648438 5.09375,-7.046875 1.25,-3.394531 1.25,-5.710937 0,-6.953125 -1.24219,-1.25 -2.93359,-1.875 -5.07812,-1.875 H 80.921875 L 74.484375,-66 Z m 0,0"
           id="path208" />
      </g>
    </g>
  </g>
  <g
     fill="#ebebeb"
     fill-opacity="1"
     id="g222"
     transform="translate(-432.54403,-883.49064)">
    <g
       transform="translate(1214.0561,1015.3188)"
       id="g220">
      <g
         id="g218">
        <path
           d="M 47.671875,-95.515625 H 83.8125 L 49.203125,0 H 13.0625 Z M 60.90625,-131.82812 H 97.046875 L 87.375,-105.01563 H 51.234375 Z m 0,0"
           id="path216" />
      </g>
    </g>
  </g>
  <g
     fill="#ebebeb"
     fill-opacity="1"
     id="g230"
     transform="translate(-432.54403,-883.49064)">
    <g
       transform="translate(1276.3102,1015.3188)"
       id="g228">
      <g
         id="g226">
        <path
           d="m 161,-95.515625 -33.92187,93.65625 c -0.79297,2.144531 -2.03907,4.117187 -3.73438,5.921875 -1.69922,1.8125 -3.67969,3.398438 -5.9375,4.765625 l -26.984375,15.09375 c -1.242187,0.789063 -2.59375,1.351563 -4.0625,1.6875 C 84.890625,25.953125 83.53125,26.125 82.28125,26.125 H 8.828125 L 17.3125,3.046875 h 64.796875 c 1.925781,0 3.847656,-0.679687 5.765625,-2.03125 1.925781,-1.351563 3.226562,-3.050781 3.90625,-5.09375 L 97.546875,-19.6875 76.859375,-7.640625 H 38.34375 c -7.46875,0 -12.730469,-2.34375 -15.78125,-7.03125 -3.054688,-4.695313 -3.21875,-10.832031 -0.5,-18.40625 L 36.46875,-72.4375 c 2.71875,-7.46875 6.765625,-13.179688 12.140625,-17.140625 5.375,-3.957031 11.789063,-5.9375 19.25,-5.9375 H 115.875 l 6.60938,6.953125 2.54687,-6.953125 z m -100.9375,57.6875 c -0.792969,2.03125 -0.765625,3.730469 0.07813,5.09375 0.851563,1.355469 2.296875,2.03125 4.328125,2.03125 H 101.45314 L 116.71875,-72.4375 H 79.734375 c -2.03125,0 -3.980469,0.679688 -5.84375,2.03125 -1.867187,1.355469 -3.140625,3.054688 -3.828125,5.09375 z m 0,0"
           id="path224" />
      </g>
    </g>
  </g>
  <g
     fill="#ebebeb"
     fill-opacity="1"
     id="g244"
     transform="translate(-432.54403,-883.49064)">
    <g
       transform="translate(1484.6152,1015.3188)"
       id="g242">
      <g
         id="g240">
        <path
           d="m 158.125,-68.703125 -13.23438,36.46875 c -0.90625,2.492187 -2.29296,4.757813 -4.15625,6.796875 -1.86718,2.03125 -4.04296,3.78125 -6.53125,5.25 L 102.8125,-2.546875 c -1.46875,0.90625 -2.96875,1.558594 -4.5,1.953125 C 96.789062,-0.195312 95.238281,0 93.65625,0 H 10.015625 L 19.6875,-26.640625 h 74.984375 c 2.375,0 4.632813,-0.816406 6.781255,-2.453125 2.14453,-1.644531 3.61328,-3.597656 4.40625,-5.859375 l 2.71875,-7.125 H 25.28125 l 13.0625,-36.140625 c 2.03125,-5.3125 5.765625,-9.492188 11.203125,-12.546875 L 80.59375,-107.90625 c 1.582031,-0.90625 3.132812,-1.55469 4.65625,-1.95313 1.53125,-0.39453 3.03125,-0.59375 4.5,-0.59375 h 83.46875 l -9.67188,26.64063 H 88.734375 c -2.375,0 -4.667969,0.792969 -6.875,2.375 -2.210937,1.585938 -3.765625,3.5625 -4.671875,5.9375 l -2.375,6.796875 z m 0,0"
           id="path238" />
      </g>
    </g>
  </g>
  <g
     fill="#ebebeb"
     fill-opacity="1"
     id="g252"
     transform="translate(-432.54403,-883.49064)">
    <g
       transform="translate(1627.7826,1015.3188)"
       id="g250">
      <g
         id="g248">
        <path
           d="M 39.703125,0 C 36.753906,0 34.601562,-0.734375 33.25,-2.203125 L 19.84375,-12.546875 C 17.363281,-15.378906 16.914062,-19.054688 18.5,-23.578125 L 34.609375,-67.6875 c 3.394531,-9.5 9.132813,-16.507812 17.21875,-21.03125 8.082031,-4.53125 17.613281,-6.796875 28.59375,-6.796875 h 51.062495 c 2.9375,0 5.14063,0.792969 6.60938,2.375 l 13.0625,10.171875 c 2.83203,3.0625 3.45703,6.742188 1.875,11.03125 l -16.125,44.109375 c -3.5,9.5 -9.26562,16.515625 -17.29687,21.046875 C 111.57813,-2.257812 102.01953,0 90.9375,0 Z M 57,-30.203125 c -0.679688,2.042969 -0.5625,3.742187 0.34375,5.09375 0.90625,1.355469 2.375,2.03125 4.40625,2.03125 h 30.375 c 1.914062,0 3.835938,-0.675781 5.765625,-2.03125 1.925781,-1.351563 3.226565,-3.050781 3.906255,-5.09375 L 114.6875,-65.3125 c 0.67578,-2.039062 0.5625,-3.738281 -0.34375,-5.09375 -0.90625,-1.351562 -2.375,-2.03125 -4.40625,-2.03125 h -30.375 c -1.917969,0 -3.839844,0.679688 -5.765625,2.03125 -1.917969,1.355469 -3.21875,3.054688 -3.90625,5.09375 z m 0,0"
           id="path246" />
      </g>
    </g>
  </g>
  <g
     fill="#ebebeb"
     fill-opacity="1"
     id="g260"
     transform="translate(-432.54403,-883.49064)">
    <g
       transform="translate(1764.504,1015.3188)"
       id="g258">
      <g
         id="g256">
        <path
           d="m 125.89063,-95.515625 h 35.96874 L 127.25,0 H 95.171875 L 95.6875,-12.046875 75.328125,0 h -46.3125 C 23.921875,0 20.242188,-1.78125 17.984375,-5.34375 15.722656,-8.90625 15.5,-13.234375 17.3125,-18.328125 l 27.984375,-77.1875 H 81.4375 l -23.75,65.3125 c -0.679688,2.042969 -0.59375,3.742187 0.25,5.09375 0.84375,1.355469 2.285156,2.03125 4.328125,2.03125 H 99.59375 Z m 0,0"
           id="path254" />
      </g>
    </g>
  </g>
  <g
     fill="#ebebeb"
     fill-opacity="1"
     id="g268"
     transform="translate(-432.54403,-883.49064)">
    <g
       transform="translate(1902.4127,1015.3188)"
       id="g266">
      <g
         id="g264">
        <path
           d="m 146.07812,-95.515625 c 5.08204,0 8.75391,1.78125 11.01563,5.34375 2.26953,3.5625 2.44141,7.890625 0.51562,12.984375 L 129.625,0 H 93.8125 l 23.76563,-65.3125 c 0.67578,-2.039062 0.53125,-3.738281 -0.4375,-5.09375 -0.96094,-1.351562 -2.39844,-2.03125 -4.3125,-2.03125 H 73.125 L 46.828125,0 H 10.6875 L 45.296875,-95.515625 H 81.4375 l -4.75,13.0625 21.875,-13.0625 z m 0,0"
           id="path262" />
      </g>
    </g>
  </g>
  <g
     fill="#ebebeb"
     fill-opacity="1"
     id="g276"
     transform="translate(-432.54403,-883.49064)">
    <g
       transform="translate(2042.6964,1015.3188)"
       id="g274">
      <g
         id="g272">
        <path
           d="m 122.48438,-88.5625 12.39062,-33.76563 h 35.96875 L 126.39063,0 H 93.984375 l 0.6875,-12.046875 L 74.140625,0 H 35.625 c -7.460938,0 -12.71875,-2.375 -15.78125,-7.125 -3.054688,-4.75 -3.21875,-10.859375 -0.5,-18.328125 l 17.125,-46.984375 c 2.71875,-7.46875 6.765625,-13.179688 12.140625,-17.140625 5.375,-3.957031 11.789063,-5.9375 19.25,-5.9375 H 115.875 Z m -65.312505,58.359375 c -0.679687,2.042969 -0.59375,3.742187 0.25,5.09375 0.851563,1.355469 2.296875,2.03125 4.328125,2.03125 H 98.734375 L 116.71875,-72.4375 H 79.734375 c -2.03125,0 -3.980469,0.679688 -5.84375,2.03125 -1.867187,1.355469 -3.140625,3.054688 -3.828125,5.09375 z m 0,0"
           id="path270" />
      </g>
    </g>
  </g>
  <g
     fill="#000000"
     fill-opacity="0.4"
     id="g284"
     transform="translate(-981.87731,-883.4907)">
    <g
       transform="translate(983.18949,1108.6618)"
       id="g282">
      <g
         id="g280">
        <path
           d="m 1.890625,0 10.9375,-51.734375 h 28.90625 L 39.84375,-42.75 H 21.734375 l -2.390625,11.375 h 16.875 l -1.953125,8.984375 h -16.875 L 14.5625,-9.0625 H 32.671875 L 30.796875,0 Z m 0,0"
           id="path278" />
      </g>
    </g>
  </g>
  <g
     fill="#000000"
     fill-opacity="0.4"
     id="g292"
     transform="translate(-981.87731,-883.4907)">
    <g
       transform="translate(1029.6907,1108.6618)"
       id="g290">
      <g
         id="g288">
        <path
           d="m 1.890625,0 10.9375,-51.734375 H 25.4375 L 37.453125,-13.625 H 37.75 c 0.144531,-1.007812 0.347656,-2.320312 0.609375,-3.9375 0.269531,-1.625 0.5625,-3.304688 0.875,-5.046875 0.3125,-1.738281 0.613281,-3.285156 0.90625,-4.640625 l 5.21875,-24.484375 H 55.0625 L 44.125,0 H 32.03125 L 19.421875,-39.125 H 19.0625 c -0.05469,0.292969 -0.152344,0.984375 -0.296875,2.078125 -0.148437,1.085937 -0.328125,2.375 -0.546875,3.875 -0.21875,1.492187 -0.464844,3.023437 -0.734375,4.59375 -0.261719,1.5625 -0.511719,2.976563 -0.75,4.234375 L 11.59375,0 Z m 0,0"
           id="path286" />
      </g>
    </g>
  </g>
  <g
     fill="#000000"
     fill-opacity="0.4"
     id="g300"
     transform="translate(-981.87731,-883.4907)">
    <g
       transform="translate(1091.6183,1108.6618)"
       id="g298">
      <g
         id="g296">
        <path
           d="M 9.421875,0 18.40625,-42.609375 H 5.9375 l 1.953125,-9.125 h 35.71875 l -1.953125,9.125 H 29.203125 L 20.21875,0 Z m 0,0"
           id="path294" />
      </g>
    </g>
  </g>
  <g
     fill="#000000"
     fill-opacity="0.4"
     id="g308"
     transform="translate(-981.87731,-883.4907)">
    <g
       transform="translate(1137.3229,1108.6618)"
       id="g306">
      <g
         id="g304">
        <path
           d="m 1.890625,0 10.9375,-51.734375 h 28.90625 L 39.84375,-42.75 H 21.734375 l -2.390625,11.375 h 16.875 l -1.953125,8.984375 h -16.875 L 14.5625,-9.0625 H 32.671875 L 30.796875,0 Z m 0,0"
           id="path302" />
      </g>
    </g>
  </g>
  <g
     fill="#000000"
     fill-opacity="0.4"
     id="g316"
     transform="translate(-981.87731,-883.4907)">
    <g
       transform="translate(1183.8241,1108.6618)"
       id="g314">
      <g
         id="g312">
        <path
           d="m 1.890625,0 10.9375,-51.734375 H 25.5 c 5.164062,0 9.257812,1.117187 12.28125,3.34375 3.019531,2.21875 4.53125,5.839844 4.53125,10.859375 0,4.105469 -1.089844,7.449219 -3.265625,10.03125 -2.167969,2.585938 -4.871094,4.433594 -8.109375,5.546875 L 40.140625,0 H 28.40625 L 21.078125,-19.859375 H 16.875 L 12.671875,0 Z m 16.875,-28.765625 h 2.75 c 3.09375,0 5.492187,-0.675781 7.203125,-2.03125 1.71875,-1.351563 2.578125,-3.40625 2.578125,-6.15625 0,-3.863281 -2.320313,-5.796875 -6.953125,-5.796875 h -2.609375 z m 0,0"
           id="path310" />
      </g>
    </g>
  </g>
  <g
     fill="#000000"
     fill-opacity="0.4"
     id="g324"
     transform="translate(-981.87731,-883.4907)">
    <g
       transform="translate(1235.1778,1108.6618)"
       id="g322">
      <g
         id="g320">
        <path
           d="M 9.421875,0 18.40625,-42.609375 H 5.9375 l 1.953125,-9.125 h 35.71875 l -1.953125,9.125 H 29.203125 L 20.21875,0 Z m 0,0"
           id="path318" />
      </g>
    </g>
  </g>
  <g
     fill="#000000"
     fill-opacity="0.4"
     id="g332"
     transform="translate(-981.87731,-883.4907)">
    <g
       transform="translate(1280.8823,1108.6618)"
       id="g330">
      <g
         id="g328">
        <path
           d="M -4.34375,0 22.75,-51.734375 H 35.9375 L 41.15625,0 H 30.640625 L 29.78125,-12.3125 H 13.046875 L 6.953125,0 Z m 21.8125,-21.515625 h 11.796875 l -0.9375,-13.328125 c -0.09375,-1.40625 -0.195313,-2.832031 -0.296875,-4.28125 -0.09375,-1.445312 -0.117188,-2.921875 -0.0625,-4.421875 h -0.140625 c -0.492187,1.304687 -1.027344,2.59375 -1.609375,3.875 C 25.644531,-38.390625 24.992188,-37 24.265625,-35.5 Z m 0,0"
           id="path326" />
      </g>
    </g>
  </g>
  <g
     fill="#000000"
     fill-opacity="0.4"
     id="g340"
     transform="translate(-981.87731,-883.4907)">
    <g
       transform="translate(1333.6121,1108.6618)"
       id="g338">
      <g
         id="g336">
        <path
           d="M -2.09375,0 -0.796875,-6.234375 5.796875,-9.125 12.890625,-42.609375 7.53125,-45.5 8.84375,-51.734375 H 31.734375 L 30.4375,-45.5 l -6.75,2.890625 -7.09375,33.484375 5.5,2.890625 L 20.796875,0 Z m 0,0"
           id="path334" />
      </g>
    </g>
  </g>
  <g
     fill="#000000"
     fill-opacity="0.4"
     id="g348"
     transform="translate(-981.87731,-883.4907)">
    <g
       transform="translate(1368.5978,1108.6618)"
       id="g346">
      <g
         id="g344">
        <path
           d="m 1.890625,0 10.9375,-51.734375 H 25.4375 L 37.453125,-13.625 H 37.75 c 0.144531,-1.007812 0.347656,-2.320312 0.609375,-3.9375 0.269531,-1.625 0.5625,-3.304688 0.875,-5.046875 0.3125,-1.738281 0.613281,-3.285156 0.90625,-4.640625 l 5.21875,-24.484375 H 55.0625 L 44.125,0 H 32.03125 L 19.421875,-39.125 H 19.0625 c -0.05469,0.292969 -0.152344,0.984375 -0.296875,2.078125 -0.148437,1.085937 -0.328125,2.375 -0.546875,3.875 -0.21875,1.492187 -0.464844,3.023437 -0.734375,4.59375 -0.261719,1.5625 -0.511719,2.976563 -0.75,4.234375 L 11.59375,0 Z m 0,0"
           id="path342" />
      </g>
    </g>
  </g>
  <g
     fill="#000000"
     fill-opacity="0.4"
     id="g356"
     transform="translate(-981.87731,-883.4907)">
    <g
       transform="translate(1430.5254,1108.6618)"
       id="g354">
      <g
         id="g352">
        <path
           d="m 1.890625,0 10.9375,-51.734375 H 27.09375 l 2.328125,38.6875 h 0.28125 L 49.125,-51.734375 h 15 L 53.1875,0 H 43.25 l 5.15625,-24.484375 c 0.332031,-1.644531 0.726562,-3.394531 1.1875,-5.25 0.457031,-1.863281 0.914062,-3.703125 1.375,-5.515625 0.457031,-1.8125 0.878906,-3.414062 1.265625,-4.8125 h -0.28125 L 31.8125,0 H 21.875 l -2.171875,-40.0625 h -0.28125 c -0.105469,1.011719 -0.304687,2.402344 -0.59375,4.171875 -0.28125,1.761719 -0.617187,3.679687 -1,5.75 -0.386719,2.074219 -0.773437,4.105469 -1.15625,6.09375 L 11.59375,0 Z m 0,0"
           id="path350" />
      </g>
    </g>
  </g>
  <g
     fill="#000000"
     fill-opacity="0.4"
     id="g364"
     transform="translate(-981.87731,-883.4907)">
    <g
       transform="translate(1501.506,1108.6618)"
       id="g362">
      <g
         id="g360">
        <path
           d="m 1.890625,0 10.9375,-51.734375 h 28.90625 L 39.84375,-42.75 H 21.734375 l -2.390625,11.375 h 16.875 l -1.953125,8.984375 h -16.875 L 14.5625,-9.0625 H 32.671875 L 30.796875,0 Z m 0,0"
           id="path358" />
      </g>
    </g>
  </g>
  <g
     fill="#000000"
     fill-opacity="0.4"
     id="g372"
     transform="translate(-981.87731,-883.4907)">
    <g
       transform="translate(1548.0072,1108.6618)"
       id="g370">
      <g
         id="g368">
        <path
           d="m 1.890625,0 10.9375,-51.734375 H 25.4375 L 37.453125,-13.625 H 37.75 c 0.144531,-1.007812 0.347656,-2.320312 0.609375,-3.9375 0.269531,-1.625 0.5625,-3.304688 0.875,-5.046875 0.3125,-1.738281 0.613281,-3.285156 0.90625,-4.640625 l 5.21875,-24.484375 H 55.0625 L 44.125,0 H 32.03125 L 19.421875,-39.125 H 19.0625 c -0.05469,0.292969 -0.152344,0.984375 -0.296875,2.078125 -0.148437,1.085937 -0.328125,2.375 -0.546875,3.875 -0.21875,1.492187 -0.464844,3.023437 -0.734375,4.59375 -0.261719,1.5625 -0.511719,2.976563 -0.75,4.234375 L 11.59375,0 Z m 0,0"
           id="path366" />
      </g>
    </g>
  </g>
  <g
     fill="#000000"
     fill-opacity="0.4"
     id="g380"
     transform="translate(-981.87731,-883.4907)">
    <g
       transform="translate(1609.9348,1108.6618)"
       id="g378">
      <g
         id="g376">
        <path
           d="M 9.421875,0 18.40625,-42.609375 H 5.9375 l 1.953125,-9.125 h 35.71875 l -1.953125,9.125 H 29.203125 L 20.21875,0 Z m 0,0"
           id="path374" />
      </g>
    </g>
  </g>
  <g
     fill="#5271ff"
     fill-opacity="1"
     id="g388"
     transform="translate(-981.87731,-883.4907)">
    <g
       transform="translate(979.98669,1105.459)"
       id="g386">
      <g
         id="g384">
        <path
           d="m 1.890625,0 10.9375,-51.734375 h 28.90625 L 39.84375,-42.75 H 21.734375 l -2.390625,11.375 h 16.875 l -1.953125,8.984375 h -16.875 L 14.5625,-9.0625 H 32.671875 L 30.796875,0 Z m 0,0"
           id="path382" />
      </g>
    </g>
  </g>
  <g
     fill="#5271ff"
     fill-opacity="1"
     id="g396"
     transform="translate(-981.87731,-883.4907)">
    <g
       transform="translate(1026.4879,1105.459)"
       id="g394">
      <g
         id="g392">
        <path
           d="m 1.890625,0 10.9375,-51.734375 H 25.4375 L 37.453125,-13.625 H 37.75 c 0.144531,-1.007812 0.347656,-2.320312 0.609375,-3.9375 0.269531,-1.625 0.5625,-3.304688 0.875,-5.046875 0.3125,-1.738281 0.613281,-3.285156 0.90625,-4.640625 l 5.21875,-24.484375 H 55.0625 L 44.125,0 H 32.03125 L 19.421875,-39.125 H 19.0625 c -0.05469,0.292969 -0.152344,0.984375 -0.296875,2.078125 -0.148437,1.085937 -0.328125,2.375 -0.546875,3.875 -0.21875,1.492187 -0.464844,3.023437 -0.734375,4.59375 -0.261719,1.5625 -0.511719,2.976563 -0.75,4.234375 L 11.59375,0 Z m 0,0"
           id="path390" />
      </g>
    </g>
  </g>
  <g
     fill="#5271ff"
     fill-opacity="1"
     id="g404"
     transform="translate(-981.87731,-883.4907)">
    <g
       transform="translate(1088.4155,1105.459)"
       id="g402">
      <g
         id="g400">
        <path
           d="M 9.421875,0 18.40625,-42.609375 H 5.9375 l 1.953125,-9.125 h 35.71875 l -1.953125,9.125 H 29.203125 L 20.21875,0 Z m 0,0"
           id="path398" />
      </g>
    </g>
  </g>
  <g
     fill="#5271ff"
     fill-opacity="1"
     id="g412"
     transform="translate(-981.87731,-883.4907)">
    <g
       transform="translate(1134.1201,1105.459)"
       id="g410">
      <g
         id="g408">
        <path
           d="m 1.890625,0 10.9375,-51.734375 h 28.90625 L 39.84375,-42.75 H 21.734375 l -2.390625,11.375 h 16.875 l -1.953125,8.984375 h -16.875 L 14.5625,-9.0625 H 32.671875 L 30.796875,0 Z m 0,0"
           id="path406" />
      </g>
    </g>
  </g>
  <g
     fill="#5271ff"
     fill-opacity="1"
     id="g420"
     transform="translate(-981.87731,-883.4907)">
    <g
       transform="translate(1180.6213,1105.459)"
       id="g418">
      <g
         id="g416">
        <path
           d="m 1.890625,0 10.9375,-51.734375 H 25.5 c 5.164062,0 9.257812,1.117187 12.28125,3.34375 3.019531,2.21875 4.53125,5.839844 4.53125,10.859375 0,4.105469 -1.089844,7.449219 -3.265625,10.03125 -2.167969,2.585938 -4.871094,4.433594 -8.109375,5.546875 L 40.140625,0 H 28.40625 L 21.078125,-19.859375 H 16.875 L 12.671875,0 Z m 16.875,-28.765625 h 2.75 c 3.09375,0 5.492187,-0.675781 7.203125,-2.03125 1.71875,-1.351563 2.578125,-3.40625 2.578125,-6.15625 0,-3.863281 -2.320313,-5.796875 -6.953125,-5.796875 h -2.609375 z m 0,0"
           id="path414" />
      </g>
    </g>
  </g>
  <g
     fill="#5271ff"
     fill-opacity="1"
     id="g428"
     transform="translate(-981.87731,-883.4907)">
    <g
       transform="translate(1231.975,1105.459)"
       id="g426">
      <g
         id="g424">
        <path
           d="M 9.421875,0 18.40625,-42.609375 H 5.9375 l 1.953125,-9.125 h 35.71875 l -1.953125,9.125 H 29.203125 L 20.21875,0 Z m 0,0"
           id="path422" />
      </g>
    </g>
  </g>
  <g
     fill="#5271ff"
     fill-opacity="1"
     id="g436"
     transform="translate(-981.87731,-883.4907)">
    <g
       transform="translate(1277.6795,1105.459)"
       id="g434">
      <g
         id="g432">
        <path
           d="M -4.34375,0 22.75,-51.734375 H 35.9375 L 41.15625,0 H 30.640625 L 29.78125,-12.3125 H 13.046875 L 6.953125,0 Z m 21.8125,-21.515625 h 11.796875 l -0.9375,-13.328125 c -0.09375,-1.40625 -0.195313,-2.832031 -0.296875,-4.28125 -0.09375,-1.445312 -0.117188,-2.921875 -0.0625,-4.421875 h -0.140625 c -0.492187,1.304687 -1.027344,2.59375 -1.609375,3.875 C 25.644531,-38.390625 24.992188,-37 24.265625,-35.5 Z m 0,0"
           id="path430" />
      </g>
    </g>
  </g>
  <g
     fill="#5271ff"
     fill-opacity="1"
     id="g444"
     transform="translate(-981.87731,-883.4907)">
    <g
       transform="translate(1330.4093,1105.459)"
       id="g442">
      <g
         id="g440">
        <path
           d="M -2.09375,0 -0.796875,-6.234375 5.796875,-9.125 12.890625,-42.609375 7.53125,-45.5 8.84375,-51.734375 H 31.734375 L 30.4375,-45.5 l -6.75,2.890625 -7.09375,33.484375 5.5,2.890625 L 20.796875,0 Z m 0,0"
           id="path438" />
      </g>
    </g>
  </g>
  <g
     fill="#5271ff"
     fill-opacity="1"
     id="g452"
     transform="translate(-981.87731,-883.4907)">
    <g
       transform="translate(1365.395,1105.459)"
       id="g450">
      <g
         id="g448">
        <path
           d="m 1.890625,0 10.9375,-51.734375 H 25.4375 L 37.453125,-13.625 H 37.75 c 0.144531,-1.007812 0.347656,-2.320312 0.609375,-3.9375 0.269531,-1.625 0.5625,-3.304688 0.875,-5.046875 0.3125,-1.738281 0.613281,-3.285156 0.90625,-4.640625 l 5.21875,-24.484375 H 55.0625 L 44.125,0 H 32.03125 L 19.421875,-39.125 H 19.0625 c -0.05469,0.292969 -0.152344,0.984375 -0.296875,2.078125 -0.148437,1.085937 -0.328125,2.375 -0.546875,3.875 -0.21875,1.492187 -0.464844,3.023437 -0.734375,4.59375 -0.261719,1.5625 -0.511719,2.976563 -0.75,4.234375 L 11.59375,0 Z m 0,0"
           id="path446" />
      </g>
    </g>
  </g>
  <g
     fill="#5271ff"
     fill-opacity="1"
     id="g460"
     transform="translate(-981.87731,-883.4907)">
    <g
       transform="translate(1427.3226,1105.459)"
       id="g458">
      <g
         id="g456">
        <path
           d="m 1.890625,0 10.9375,-51.734375 H 27.09375 l 2.328125,38.6875 h 0.28125 L 49.125,-51.734375 h 15 L 53.1875,0 H 43.25 l 5.15625,-24.484375 c 0.332031,-1.644531 0.726562,-3.394531 1.1875,-5.25 0.457031,-1.863281 0.914062,-3.703125 1.375,-5.515625 0.457031,-1.8125 0.878906,-3.414062 1.265625,-4.8125 h -0.28125 L 31.8125,0 H 21.875 l -2.171875,-40.0625 h -0.28125 c -0.105469,1.011719 -0.304687,2.402344 -0.59375,4.171875 -0.28125,1.761719 -0.617187,3.679687 -1,5.75 -0.386719,2.074219 -0.773437,4.105469 -1.15625,6.09375 L 11.59375,0 Z m 0,0"
           id="path454" />
      </g>
    </g>
  </g>
  <g
     fill="#5271ff"
     fill-opacity="1"
     id="g468"
     transform="translate(-981.87731,-883.4907)">
    <g
       transform="translate(1498.3032,1105.459)"
       id="g466">
      <g
         id="g464">
        <path
           d="m 1.890625,0 10.9375,-51.734375 h 28.90625 L 39.84375,-42.75 H 21.734375 l -2.390625,11.375 h 16.875 l -1.953125,8.984375 h -16.875 L 14.5625,-9.0625 H 32.671875 L 30.796875,0 Z m 0,0"
           id="path462" />
      </g>
    </g>
  </g>
  <g
     fill="#5271ff"
     fill-opacity="1"
     id="g476"
     transform="translate(-981.87731,-883.4907)">
    <g
       transform="translate(1544.8044,1105.459)"
       id="g474">
      <g
         id="g472">
        <path
           d="m 1.890625,0 10.9375,-51.734375 H 25.4375 L 37.453125,-13.625 H 37.75 c 0.144531,-1.007812 0.347656,-2.320312 0.609375,-3.9375 0.269531,-1.625 0.5625,-3.304688 0.875,-5.046875 0.3125,-1.738281 0.613281,-3.285156 0.90625,-4.640625 l 5.21875,-24.484375 H 55.0625 L 44.125,0 H 32.03125 L 19.421875,-39.125 H 19.0625 c -0.05469,0.292969 -0.152344,0.984375 -0.296875,2.078125 -0.148437,1.085937 -0.328125,2.375 -0.546875,3.875 -0.21875,1.492187 -0.464844,3.023437 -0.734375,4.59375 -0.261719,1.5625 -0.511719,2.976563 -0.75,4.234375 L 11.59375,0 Z m 0,0"
           id="path470" />
      </g>
    </g>
  </g>
  <g
     fill="#5271ff"
     fill-opacity="1"
     id="g484"
     transform="translate(-981.87731,-883.4907)">
    <g
       transform="translate(1606.732,1105.459)"
       id="g482">
      <g
         id="g480">
        <path
           d="M 9.421875,0 18.40625,-42.609375 H 5.9375 l 1.953125,-9.125 h 35.71875 l -1.953125,9.125 H 29.203125 L 20.21875,0 Z m 0,0"
           id="path478" />
      </g>
    </g>
  </g>
</svg>
