<?xml version="1.0" encoding="UTF-8" standalone="no"?>
<svg
   width="1616.4099"
   zoomAndPan="magnify"
   viewBox="0 0 1212.3075 841.26874"
   height="1121.6918"
   preserveAspectRatio="xMidYMid"
   version="1.0"
   id="svg486"
   sodipodi:docname="logo.svg"
   xmlns:inkscape="http://www.inkscape.org/namespaces/inkscape"
   xmlns:sodipodi="http://sodipodi.sourceforge.net/DTD/sodipodi-0.dtd"
   xmlns="http://www.w3.org/2000/svg"
   xmlns:svg="http://www.w3.org/2000/svg">
  <sodipodi:namedview
     id="namedview488"
     pagecolor="#505050"
     bordercolor="#eeeeee"
     borderopacity="1"
     inkscape:showpageshadow="0"
     inkscape:pageopacity="0"
     inkscape:pagecheckerboard="0"
     inkscape:deskcolor="#505050"
     showgrid="false" />
  <defs
     id="defs4" />
  <path
     fill="#5271ff"
     d="m 598.16844,236.29659 c -26.2226,61.61718 -72.1054,57.02734 -100.9492,5.24218 -4.5898,-7.86718 -8.5234,-1.96484 -5.2461,3.27735 23.6016,36.71094 64.2422,62.92969 102.2617,26.8789 7.211,-5.90234 7.211,-43.26562 3.9336,-35.39843 z M 501.15284,93.394237 c 36.0508,-23.597652 67.5156,-22.289059 95.7031,3.27735 9.1797,8.519533 13.7656,3.27734 4.5899,-5.2461 -101.6055,-94.3945273 -169.125,43.921883 -124.5469,121.925783 5.2422,9.83204 11.1406,7.21094 5.2422,-3.93359 -19.0078,-35.39453 -23.5977,-88.49219 19.0117,-116.023443 z m 142.9023,197.308603 c -28.1875,-11.80078 -38.0195,-17.69922 -28.8437,-42.60938 2.6211,-7.21094 -2.6211,-10.48828 -5.8984,-3.27734 -15.7344,33.43359 -2.625,57.6875 29.496,64.89844 8.5235,1.96484 13.1094,-15.07813 5.2461,-19.01172 z m -244.5078,199.93359 c -26.875,41.29688 -67.5195,57.68359 -114.05857,68.82813 -58.99609,13.76562 -100.94922,48.50781 -81.94141,100.29296 13.10938,35.39844 -1.96484,42.60938 -16.38671,72.10547 -9.83204,20.32032 -19.66407,4.58985 -12.45704,-7.21093 7.86719,-13.76563 11.80079,-20.97657 8.52344,-37.36329 -3.27734,-19.66406 -14.42187,-28.84375 -28.1875,-9.17578 -5.89844,8.51953 -2.62109,7.86328 2.6211,1.96485 13.11328,-13.76563 16.39062,-6.55469 19.66796,7.86718 3.27735,15.73047 0,20.32032 -7.21093,32.77344 -12.45703,20.97656 9.83203,41.30078 26.21875,12.45703 17.04297,-30.15234 30.15625,-37.36328 15.07812,-75.38281 -18.35547,-46.54297 26.21875,-78.00781 76.69531,-91.77344 50.47268,-13.76562 98.98048,-30.80859 119.30468,-72.76172 4.586,-12.45703 0,-14.42187 -7.8672,-2.62109 z m -88.4961,-11.80078 c 27.5313,-19.01172 44.5782,-33.42969 60.3086,-41.29688 11.8008,-5.24609 9.8321,-9.83203 -1.9648,-5.24609 -23.6016,9.17969 -45.8867,22.94531 -62.2774,41.29688 -7.207,8.52343 -3.2773,9.83593 3.9336,5.24609 z M 118.98877,713.51143 c 1.96484,8.51953 6.55469,38.67188 -5.90234,38.01953 0,0 0,-0.65625 0.65625,-0.65625 5.89843,-15.07812 -6.55469,-28.84375 -5.24219,-45.23047 0.65234,-7.86718 -5.24609,-10.48828 -5.90234,-1.3125 -1.3086,13.76563 11.80078,32.1211 4.58984,42.60938 -9.175778,14.42187 -13.765628,16.38672 -15.078128,0 -1.30859,-18.35547 -8.51953,-34.74219 -11.79687,-55.71875 -2.625,-16.38672 3.27734,-32.1211 17.04297,-41.95313 38.675778,-27.53125 95.046868,-76.69531 87.183588,-71.44922 -12.45703,9.17579 -78.00781,60.30469 -90.460938,66.20704 -17.04296,8.51953 -24.91015,23.59765 -22.28906,42.60546 3.27735,20.32032 13.76563,42.60938 15.07813,60.3086 0.65625,7.21094 1.96484,25.5664 14.421868,17.04297 2.6211,-1.96485 5.89844,-4.58985 7.86328,-7.21094 0.65625,0.65625 1.3125,0.65625 2.625,0.65625 21.62891,1.3125 15.73047,-36.71094 13.10938,-45.88672 -3.27735,-7.86719 -7.21094,-4.58984 -5.89844,1.96875 z M 933.78956,446.71456 c 30.8125,19.66796 41.9531,57.03125 49.1641,80.6289 6.5547,23.59766 4.5898,12.45313 1.9687,-3.27734 -6.5547,-38.67578 -11.1445,-64.89453 -44.5781,-83.90625 -13.1094,-7.21094 -19.0078,-1.3125 -6.5547,6.55469 z m 55.0664,152.73437 c -3.9336,-1.96484 -5.9023,-15.73047 -10.4883,-16.38672 -11.1445,-1.3125 -16.3906,13.76563 -2.625,19.01172 36.71104,13.10938 55.06254,74.72656 49.16414,111.4375 -0.6562,4.58594 -2.6211,6.55469 -5.2422,0 -2.625,-5.90234 -5.2461,-23.60156 -7.2109,-30.8125 -4.5899,-17.04297 -16.39064,-16.38672 -16.39064,-1.96484 0,9.83203 4.58984,10.48828 5.90234,0 0,-1.3125 3.2773,-1.3125 3.9336,1.3125 2.6211,11.79687 5.2422,22.9414 8.5195,35.39453 4.5899,17.04687 12.4571,12.45703 15.0781,-3.27735 6.5547,-33.42968 -6.5546,-97.67187 -40.64064,-114.71484 z m 14.41804,112.09375 c 1.3125,3.27734 5.9023,51.12891 -0.6524,34.74219 -3.93354,-8.51953 -5.90234,-19.66406 -7.86714,-29.4961 -1.9688,-8.52343 -7.8672,-7.86718 -7.211,0.65235 0.6563,10.48828 4.5899,19.66797 8.5196,29.5 14.42184,37.36328 17.04684,-18.35547 13.11324,-36.70703 -1.9687,-11.14453 -9.83204,-8.52344 -5.9023,1.30859 z m -32.77344,-15.73047 c 0.6562,10.48828 1.3085,39.32813 0,47.19531 -0.6563,4.58985 -4.5899,15.07813 -8.5235,5.2461 -5.2422,-11.80078 -7.8633,-32.77735 -10.4883,-46.54297 -1.9648,-11.14453 -15.7304,-26.22266 -20.9765,-8.52344 -1.9649,7.86719 5.2461,5.90235 5.9023,1.96875 1.3086,-9.17969 8.5195,2.6211 9.1758,7.86719 3.2773,16.38672 1.9648,31.46484 9.1758,47.19531 7.8672,17.69922 17.6992,8.52344 21.6328,-6.55469 3.2773,-11.80078 0.6562,-36.05468 -0.6563,-47.85156 -0.6562,-3.93359 0.6563,-12.45703 3.9336,-7.86719 3.9336,5.89844 8.5235,9.17579 4.5899,0 -4.5899,-13.76562 -14.4219,-7.21093 -13.7656,7.86719 z m -39.9883,46.53906 c 0,7.21094 -1.9649,7.86719 -5.8985,1.96875 -9.1757,-12.45703 -9.1757,-38.67578 -9.1757,-52.4414 0,-7.21094 -3.2774,-11.80078 -4.5899,-3.27735 -1.9648,15.73047 0,51.12891 12.4531,63.58204 9.1797,7.86718 14.4219,-4.58594 12.4571,-13.10938 -1.9688,-6.55469 -5.2461,-2.62109 -5.2461,3.27734 z m -49.8164,-68.17187 c 1.3086,-4.58984 6.5547,-11.14453 12.4531,-19.66406 5.8984,-7.86719 12.4531,-17.04688 17.043,-26.22266 7.2109,-13.76562 11.1445,-14.42187 15.0781,-15.73047 1.3086,0 1.9648,-0.65625 3.2773,-1.3125 0,-6.55469 -5.2461,-21.63281 -9.1758,-20.32031 -5.9023,1.30859 1.9649,7.21094 -7.2109,23.59766 -4.5898,8.52343 -19.668,27.53125 -24.9101,35.39843 -5.9024,8.51953 -11.8008,16.38672 -13.1094,21.63282 -0.6563,0.65234 -0.6563,1.96484 -1.3125,3.27734 -3.9336,9.83203 -9.1758,24.25391 -4.5899,34.08594 1.3125,2.62109 2.6211,4.58984 3.9336,5.89843 1.3125,1.3125 3.2774,1.96875 5.2461,1.96875 1.9649,0 3.2774,-0.65625 4.586,-1.96875 1.3125,-1.30859 2.625,-3.27734 3.9336,-5.89843 0,-0.65625 0.6562,-1.3125 1.3125,-2.6211 2.621,-7.86718 8.5195,-23.60156 20.3203,-26.8789 l -1.9688,-7.21094 c -15.7305,3.93359 -22.9414,22.28906 -25.5625,31.46484 -0.6562,0.65625 -0.6562,1.96875 -0.6562,2.625 -0.6563,1.3086 -1.3125,2.6211 -1.9649,3.27735 -0.6562,-0.65625 -1.3125,-1.3125 -1.3125,-2.625 -3.2773,-7.20703 1.3125,-19.66407 4.5899,-28.83985 -0.6563,-1.96875 -0.6563,-2.625 0,-3.93359 z m 0,0"
     fill-opacity="1"
     fill-rule="nonzero"
     id="path6"
     inkscape:export-filename="logo.svg"
     inkscape:export-xdpi="96"
     inkscape:export-ydpi="96" />
  <path
     fill="#5271ff"
     d="m 963.28956,444.74971 c -0.6562,-9.17969 -15.0781,-19.66797 -27.5312,-24.2539 -45.8868,-34.74219 -104.2266,-83.90625 -155.3594,-114.71485 -36.0508,-21.63281 -57.02742,-22.94531 -100.29302,-20.97656 -19.0078,0.65625 -24.9101,1.30859 -20.3203,20.32031 1.3125,7.21094 -5.2422,20.97656 -7.8672,27.53125 -7.2109,15.07813 0,17.69922 5.9024,4.58985 3.9336,-8.52344 11.1406,-22.94532 9.1757,-32.1211 -2.621,-11.14453 5.2461,-4.58984 15.7344,-5.24609 19.0078,-1.3086 59.64852,-7.21094 94.39062,12.45703 62.9297,35.39844 109.4727,91.11719 136.3477,108.16016 -47.1953,15.07421 -92.4258,94.39453 -66.207,111.4375 7.2109,4.58593 15.0781,0.65625 20.3203,-3.9336 7.8672,-6.55469 6.5586,-9.83203 -3.2774,-4.58984 -3.2773,1.96875 -10.4882,5.24609 -14.4179,3.27734 -18.3555,-9.83203 40.6406,-80.6289 88.4922,-85.21484 5.2461,-0.65625 16.3867,-1.96875 18.3554,4.58594 4.586,9.17968 6.5547,8.52343 6.5547,-1.3086 z m -164.5351,22.94141 c -23.5977,-24.25391 -41.9532,22.94531 -41.2969,43.26562 0.6562,12.45313 15.0781,36.70703 22.289,49.16407 6.5547,10.48828 9.8321,8.51953 3.9297,-2.625 -6.5547,-13.76563 -7.207,-36.05079 -6.5547,-44.57422 1.3125,-13.76563 -3.2773,-51.12891 12.4571,-31.46485 9.832,12.45703 24.2539,19.01172 38.0195,33.4336 7.2109,7.86328 11.7969,3.27734 5.8984,-4.58985 -11.1445,-15.73437 -22.2851,-29.5 -34.7421,-42.60937 z m -312.67972,34.08594 c -6.5547,4.58984 -14.4219,9.83593 -21.6328,15.07812 -14.4219,-25.56641 -45.8868,-54.40625 -64.8946,-72.76172 -18.3554,-17.69922 -18.3554,-8.52344 -6.5547,-20.97656 34.086,-34.08594 92.4258,-76.03906 138.9688,-89.14844 19.0078,-5.24609 15.7305,-9.83594 -0.6563,-6.55469 -52.4414,11.79688 -115.3711,53.09375 -154.0468,90.46094 -21.6289,20.32031 -5.2422,12.45313 15.0781,32.11719 20.3203,19.66797 37.3633,46.54297 48.5078,72.10937 3.9336,9.83204 6.5547,34.08594 -1.9648,9.17579 -2.625,-7.21094 -5.9024,-6.55469 -4.5899,1.3125 1.3125,5.89843 13.1094,21.6289 16.3867,16.38671 1.9688,-2.62109 7.211,-7.86718 11.8008,-13.10937 7.211,-7.21094 15.7305,-14.42188 21.6328,-19.01172 7.211,-3.93359 7.8633,-19.00781 1.9649,-15.07812 z m 41.9531,-22.94141 c -2.6211,-10.48828 -20.3203,-6.55469 -18.3555,5.89844 5.9024,41.95312 28.1875,98.98437 39.3321,142.24609 5.8984,22.94531 -5.8985,48.50781 -7.211,68.17578 -0.6562,12.45313 7.8672,13.76563 7.8672,0 0,-20.97656 11.7969,-45.88672 7.2109,-69.48437 -10.4882,-47.85157 -18.3554,-99.64063 -28.8437,-146.83594 z m 0,0"
     fill-opacity="1"
     fill-rule="nonzero"
     id="path8" />
  <path
     fill="#ebebeb"
     d="m 1117.9888,681.39034 c 4.5899,-1.3125 8.5235,0.65625 8.5235,3.93359 0,5.89844 -7.211,9.83203 -10.4883,7.86328 2.6211,9.17969 5.8984,17.69922 8.5234,26.87891 1.9649,6.55469 -2.625,7.86328 -4.5898,1.96484 -2.6211,-9.17578 -5.8985,-18.35547 -8.5235,-27.53125 -1.9648,-6.55469 -1.3085,-11.14453 6.5547,-13.10937 z m 0,0"
     fill-opacity="1"
     fill-rule="evenodd"
     id="path10" />
  <path
     fill="#ebebeb"
     d="m 1196.6529,646.64815 c 3.9336,-1.96875 8.5195,-1.3125 9.1758,1.96484 1.3125,5.90235 -4.586,11.14453 -8.5196,9.83203 4.586,7.86719 9.1758,16.39063 13.7657,24.25391 3.2773,5.90234 -0.6563,8.52344 -3.9336,2.625 -4.5899,-8.52344 -9.8321,-17.04297 -14.4219,-25.56641 -3.2773,-4.58984 -3.2773,-9.17578 3.9336,-13.10937 z m 0,0"
     fill-opacity="1"
     fill-rule="evenodd"
     id="path12" />
  <path
     fill="#ebebeb"
     d="m 1078.6607,672.8669 c -3.9336,1.96875 -8.5234,1.3125 -9.1797,-1.96484 -1.3086,-5.90235 5.2461,-11.80079 9.1797,-10.48829 -4.5898,-8.52343 -9.832,-17.04296 -14.4219,-25.5664 -3.2773,-5.24219 -0.6562,-7.21094 2.6211,-5.24219 4.5899,3.27734 19.6641,1.96484 20.9766,9.17578 0.6562,3.27735 -5.2422,9.17578 -5.2422,5.2461 0,-6.5586 -7.2109,-5.90235 -11.8008,-7.86719 l 12.4531,22.28515 c 3.2774,5.90235 3.2774,11.14454 -4.5859,14.42188 z m 0,0"
     fill-opacity="1"
     fill-rule="evenodd"
     id="path14" />
  <path
     fill="#ebebeb"
     d="m 1135.0357,653.20284 c -4.5898,1.96484 -8.5234,1.3125 -9.1797,-1.96875 -1.3086,-5.89844 5.2461,-11.14063 9.1797,-9.83203 -4.5898,-8.51954 -9.1797,-17.04297 -13.7695,-25.5625 -3.2774,-5.2461 -0.6524,-7.21094 2.625,-5.2461 4.5859,3.27735 19.664,2.6211 20.9765,9.83203 0.6563,3.27735 -5.2461,9.17969 -5.2461,5.2461 0.6563,-6.55469 -7.2109,-5.90235 -11.7968,-7.86719 l 11.7968,22.28906 c 3.2774,4.58594 3.2774,9.17578 -4.5859,13.10938 z m 0,0"
     fill-opacity="1"
     fill-rule="evenodd"
     id="path16" />
  <path
     fill="#ebebeb"
     d="m 1156.0123,581.09737 c -3.9336,1.30859 -8.5235,0.65234 -8.5235,-2.625 -0.6562,-5.89844 5.8985,-10.48828 9.1758,-9.17578 -3.9336,-8.52344 -7.8633,-17.04297 -11.7969,-25.56641 -2.625,-6.55469 1.9649,-8.51953 4.586,-2.62109 3.9336,9.17578 7.8672,17.69922 11.8008,26.875 2.6211,5.24609 1.9648,9.83593 -5.2422,13.11328 z m 0,0"
     fill-opacity="1"
     fill-rule="evenodd"
     id="path18" />
  <path
     fill="#ebebeb"
     d="m 484.10984,239.57393 c 9.8321,21.63281 -11.1445,11.79688 15.0742,41.95313 20.9766,24.2539 23.5977,43.91796 13.7657,76.03906 -5.8985,18.35547 -12.4532,38.01953 9.1797,62.92969 33.4296,38.67578 55.0625,78.66015 65.5507,126.51171 5.8985,28.84375 -0.6562,44.57813 -24.2539,61.6211 -43.9218,31.46484 -131.1054,51.1289 -128.4804,121.26953 0.6562,19.00781 -3.2774,17.04297 -3.9336,1.96484 -5.8985,-74.07031 80.6289,-92.42578 129.1367,-129.13672 20.9766,-16.38671 26.2187,-28.1875 21.6328,-54.40625 -9.1797,-49.16406 -32.1211,-86.52734 -64.8984,-122.58203 -24.9102,-27.53125 -16.3868,-52.4414 -8.5196,-72.10547 10.4883,-28.1875 9.1758,-45.88671 -12.457,-67.51953 -32.7734,-33.42968 -7.2109,-22.9414 -16.3867,-43.91797 -5.2461,-8.52343 0,-13.10937 4.5898,-2.62109 z m 0,0"
     fill-opacity="1"
     fill-rule="nonzero"
     id="path20" />
  <path
     fill="#ebebeb"
     d="m 490.66454,261.20674 c 36.707,26.875 42.6055,53.75 45.8867,86.52735 7.8633,82.59375 41.2969,118.64843 72.1055,180.92187 10.4883,20.97656 12.4531,68.82813 -3.9336,86.52735 -17.6992,19.66406 -62.9297,34.74218 -91.7734,43.91796 -26.2188,7.86719 -62.9297,33.4336 -73.418,58.9961 -4.5859,11.14453 -8.5195,8.52344 -2.6211,-2.6211 16.3867,-30.80859 46.543,-51.1289 75.3828,-62.92968 24.9102,-9.83203 69.4883,-25.56641 87.8399,-45.23047 14.4218,-15.73047 11.1445,-58.9961 2.625,-76.69531 -31.4649,-66.20704 -64.8985,-106.19141 -72.7657,-181.57813 -3.2773,-30.80859 -5.8984,-56.375 -39.3281,-81.28125 -12.457,-9.17969 -9.832,-13.76562 0,-6.55469 z m 0,0"
     fill-opacity="1"
     fill-rule="nonzero"
     id="path22" />
  <path
     fill="#ebebeb"
     d="m 111.77783,775.12862 c 20.97657,7.21094 89.80469,9.83203 92.42578,-20.32031 0.65625,-4.58985 -17.69921,-5.2461 -18.35546,-1.3125 -7.21094,23.59765 -57.02735,21.63281 -73.41797,17.69921 -7.21094,-1.3125 -8.51953,1.3125 -0.65235,3.9336 z m 229.42971,-20.32031 c 0,-7.21094 -20.9766,-6.55469 -21.6328,1.96484 -1.9688,78.00781 -258.929718,64.89453 -313.3359681,47.85156 -7.86719,-2.62109 -8.52344,0.65625 -0.65625,3.9336 61.6171901,22.94531 339.5586181,36.05468 335.6250181,-53.75 z M 48.191902,798.07002 c 30.80859,7.86719 252.371038,22.28907 237.949208,-41.95312 -1.30859,-5.24219 -20.97656,-5.24219 -20.32031,1.3125 1.3125,45.23047 -182.230468,45.23047 -216.972648,37.36328 -8.52344,-1.96484 -8.52344,1.3125 -0.65625,3.27734 z m 0,0"
     fill-opacity="1"
     fill-rule="nonzero"
     id="path24" />
  <path
     fill="#ebebeb"
     d="m 652.57474,116.33565 c 0,-0.65625 0.6562,-1.30859 0.6562,-1.96484 l 9.1758,-41.296882 c 2.625,-11.144531 -0.6523,-11.800781 -10.4883,-20.324219 C 608.00054,16.698928 579.15674,-4.9338833 526.71534,0.96455366 482.14114,6.2106477 445.43404,37.019241 417.90284,81.593457 c -5.2461,7.86719 -7.8672,6.55469 -3.9336,14.42188 l 17.6992,32.121093 c -13.7656,-2.62109 -26.2226,4.58594 -30.1562,26.21875 -4.586,26.22266 28.1875,96.36328 59.6523,93.08203 11.1445,-1.30859 20.3203,-7.20703 20.9766,-19.66406 0.6562,-7.21094 -5.8985,-6.55469 -5.8985,0.65625 0,2.62109 -0.6562,4.58984 -1.3125,6.55469 -0.6562,-1.3125 -1.3086,-3.27735 -2.6211,-4.58985 -24.2539,-26.875 -36.0546,-53.75 -34.0859,-89.14843 0,-0.65625 0,-1.3125 0,-1.96485 3.2774,1.3086 6.5547,3.27735 10.4883,5.89844 9.832,5.89844 13.7656,1.30859 3.9336,-5.89844 -4.5899,-3.27734 -9.1797,-6.55859 -13.7656,-7.86719 0,-0.65625 -0.6563,-1.3125 -0.6563,-1.96875 l -13.1094,-36.050783 c -1.9687,-5.90234 -1.3125,-4.58984 2.6211,-9.83203 32.1211,-44.578122 62.9297,-52.441404 100.293,-55.718748 37.3633,-3.277343 74.0742,1.308594 117.9922,33.429688 5.8984,4.589844 5.2461,1.964844 4.5898,9.175781 l -2.6211,43.921882 c 0,0.65625 0,0.65625 0,1.30859 -6.5586,-1.96484 -13.1132,-1.96484 -18.3554,0 -17.043,5.90234 -5.2461,39.98828 -3.2774,55.71875 1.9649,13.76562 -2.625,33.43359 -7.2109,46.54297 -1.9688,5.24219 -3.2774,9.17578 4.5859,12.45312 38.6758,17.04297 68.8321,-17.04297 69.4844,-57.68359 -0.6523,-22.94141 -20.3203,-47.85156 -40.6406,-56.375 z m -186.1641,120.61328 c 1.9649,1.3125 3.2774,2.625 4.5859,2.625 -2.621,1.96484 -5.8984,2.62109 -9.832,1.96484 -28.1875,-5.24218 -47.8515,-60.30468 -43.918,-82.59375 1.9649,-12.45703 5.2422,-19.01171 9.8321,-20.32031 -4.5899,36.70703 9.832,74.07031 39.332,98.32422 z m 159.9453,-22.28516 c 4.586,-13.76562 11.1446,-35.39843 11.1446,-49.82031 0,-11.14453 -10.4883,-32.77344 -1.9688,-36.05078 2.6211,-0.65625 4.5898,-1.3125 6.5547,-1.3125 0,0.65625 0,1.96484 0.6562,2.62109 8.5235,30.15625 1.3125,65.55079 -9.832,94.39454 0,0.65625 0,0.65625 -0.6562,1.3125 -1.9649,-0.65625 -4.5899,-1.96875 -7.211,-3.27735 -1.9648,-1.3125 0.6563,-5.90234 1.3125,-7.86719 z m 11.1446,12.45313 c 0.6523,-1.30859 1.9648,-2.62109 2.621,-4.58594 16.3868,-28.1875 26.2188,-62.27344 10.4883,-94.39453 14.4219,4.58594 22.2852,23.59766 22.2852,43.26172 0,28.84375 -9.1758,60.30859 -35.3945,55.71875 z m 0,0"
     fill-opacity="1"
     fill-rule="nonzero"
     id="path26" />
  <path
     fill="#ebebeb"
     d="m 928.54736,782.33956 c 23.5977,7.86718 98.32824,11.14453 104.22664,-17.69922 1.3125,-5.2461 -13.7656,-4.58985 -15.0781,-0.65625 -10.4883,25.5664 -85.21494,20.97656 -95.70324,9.83203 -8.5234,-7.86719 -6.5546,3.93359 6.5547,8.52344 z m 215.00784,-3.9336 c -11.8007,88.49219 -304.81254,57.6836 -338.24614,21.63281 -8.5195,-9.17968 -3.9335,5.24219 7.211,11.14063 55.0625,30.8125 343.49224,60.96484 349.39064,-34.74219 0.6563,-7.86328 -17.043,-7.86328 -18.3555,1.96875 z m -284.49214,24.25391 c 45.2304,19.00781 256.30464,40.64062 249.09374,-28.1875 -0.6562,-5.89844 -13.7656,-9.17578 -13.7656,-1.96485 -3.9336,51.78516 -208.45314,48.50782 -241.88284,20.97657 -10.4883,-7.86719 -3.9336,5.24218 6.5547,9.17578 z m 0,0"
     fill-opacity="1"
     fill-rule="nonzero"
     id="path28" />
</svg>
